<?xml version="1.0" encoding="utf-8"?>
<!-- Generator: Adobe Illustrator 25.3.1, SVG Export Plug-In . SVG Version: 6.00 Build 0)  -->
<svg version="1.1" id="Capa_1" xmlns="http://www.w3.org/2000/svg" xmlns:xlink="http://www.w3.org/1999/xlink" x="0px" y="0px"
	 viewBox="0 0 24 24" style="enable-background:new 0 0 24 24;" xml:space="preserve">
<style type="text/css">
	.st0{clip-path:url(#SVGID_2_);fill:#FFFFFF;}
	.st1{clip-path:url(#SVGID_4_);}
	.st2{clip-path:url(#SVGID_6_);fill:#FFFFFF;}
	.st3{fill:#FFFFFF;}
</style>
<g>
	<path class="st3" d="M18.98,0H5.02C2.26,0,0,2.26,0,5.02v13.96C0,21.74,2.26,24,5.02,24l13.96,0c2.76,0,5.02-2.26,5.02-5.02
		l0-13.96C24,2.26,21.74,0,18.98,0z M9.29,17.23H6.97V9.77h2.32V17.23z M8.13,8.75c-0.75,0-1.35-0.6-1.35-1.35
		c0-0.74,0.6-1.34,1.35-1.34c0.74,0,1.35,0.6,1.35,1.34C9.48,8.14,8.87,8.75,8.13,8.75z M17.98,17.23h-2.32V13.6
		c0-0.87-0.02-1.98-1.21-1.98c-1.21,0-1.39,0.94-1.39,1.92v3.69h-2.32V9.77h2.23v1.02H13c0.31-0.59,1.07-1.21,2.2-1.21
		c2.35,0,2.78,1.55,2.78,3.56V17.23z"/>
</g>
</svg>
