<?xml version="1.0" encoding="utf-8"?>
<!-- Generator: Adobe Illustrator 25.3.1, SVG Export Plug-In . SVG Version: 6.00 Build 0)  -->
<svg version="1.1" id="Capa_1" xmlns="http://www.w3.org/2000/svg" xmlns:xlink="http://www.w3.org/1999/xlink" x="0px" y="0px"
	 viewBox="0 0 24 24" style="enable-background:new 0 0 24 24;" xml:space="preserve">
<style type="text/css">
	.st0{clip-path:url(#SVGID_2_);fill:#FFFFFF;}
	.st1{clip-path:url(#SVGID_4_);}
	.st2{clip-path:url(#SVGID_6_);fill:#FFFFFF;}
	.st3{fill:#FFFFFF;}
</style>
<g>
	<path class="st3" d="M17.4,11.54c-0.3-0.28-0.67-0.42-1.1-0.42c-0.21,0-0.41,0.04-0.6,0.11c-0.18,0.07-0.35,0.18-0.49,0.31
		c-0.14,0.13-0.26,0.29-0.35,0.48c-0.09,0.19-0.14,0.4-0.16,0.63h3.21C17.87,12.19,17.7,11.82,17.4,11.54z"/>
	<path class="st3" d="M18.94,0H5.06C2.28,0,0,2.28,0,5.06l0,13.88C0,21.72,2.28,24,5.06,24h13.88c2.78,0,5.06-2.28,5.06-5.06V5.06
		C24,2.28,21.72,0,18.94,0z M14.23,8.15h4.14v1.03h-4.14V8.15z M12.45,15.12c-0.15,0.28-0.35,0.51-0.6,0.69
		c-0.26,0.19-0.55,0.33-0.89,0.43c-0.34,0.1-0.7,0.15-1.08,0.15H5.7V7.74h4.63c0.3,0,0.57,0.07,0.82,0.19
		c0.24,0.13,0.45,0.3,0.62,0.51c0.17,0.21,0.3,0.44,0.4,0.71c0.09,0.26,0.14,0.53,0.14,0.8c0,0.42-0.11,0.82-0.32,1.19
		c-0.21,0.37-0.52,0.64-0.93,0.82c0.5,0.15,0.89,0.41,1.18,0.79c0.29,0.38,0.43,0.85,0.43,1.42C12.67,14.52,12.59,14.84,12.45,15.12
		z M19.51,13.68h-4.78c0.02,0.24,0.08,0.46,0.18,0.65c0.09,0.19,0.22,0.35,0.37,0.48c0.15,0.13,0.32,0.24,0.51,0.31
		c0.19,0.07,0.39,0.11,0.59,0.11c0.31,0,0.61-0.08,0.89-0.23c0.28-0.15,0.47-0.36,0.57-0.61l1.36,0.38
		c-0.23,0.47-0.59,0.86-1.09,1.16c-0.5,0.3-1.1,0.45-1.79,0.45c-0.5,0-0.94-0.08-1.35-0.25c-0.79-0.34-1.36-0.91-1.68-1.71
		c-0.15-0.39-0.23-0.79-0.23-1.22c0-0.44,0.07-0.86,0.22-1.25c0.32-0.81,0.88-1.38,1.68-1.73c0.41-0.17,0.86-0.26,1.36-0.26
		c0.5,0,0.95,0.09,1.35,0.26c1.31,0.57,1.92,1.84,1.86,3.21C19.53,13.54,19.52,13.62,19.51,13.68z"/>
	<path class="st3" d="M10.68,13.02c-0.09-0.11-0.19-0.19-0.32-0.25c-0.12-0.06-0.26-0.09-0.4-0.09H7.38v2.28h2.5
		c0.15,0,0.3-0.03,0.43-0.09c0.13-0.06,0.25-0.14,0.35-0.24c0.1-0.1,0.17-0.22,0.23-0.36c0.06-0.14,0.09-0.28,0.09-0.44
		c0-0.15-0.03-0.3-0.08-0.44C10.84,13.25,10.77,13.13,10.68,13.02z"/>
	<path class="st3" d="M10.35,11.06c0.2-0.19,0.3-0.46,0.3-0.8c0-0.33-0.09-0.6-0.27-0.79C10.19,9.27,9.96,9.17,9.7,9.17H7.38v2.18
		h2.24C9.91,11.35,10.15,11.26,10.35,11.06z"/>
</g>
</svg>
