<?xml version="1.0" encoding="utf-8"?>
<!-- Generator: Adobe Illustrator 25.3.1, SVG Export Plug-In . SVG Version: 6.00 Build 0)  -->
<svg version="1.1" id="Capa_1" xmlns="http://www.w3.org/2000/svg" xmlns:xlink="http://www.w3.org/1999/xlink" x="0px" y="0px"
	 viewBox="0 0 24 24" style="enable-background:new 0 0 24 24;" xml:space="preserve">
<style type="text/css">
	.st0{clip-path:url(#SVGID_2_);fill:#FFFFFF;}
	.st1{clip-path:url(#SVGID_4_);}
	.st2{clip-path:url(#SVGID_6_);fill:#FFFFFF;}
	.st3{fill:#FFFFFF;}
</style>
<g>
	<g>
		<defs>
			<rect id="SVGID_1_" y="0" width="24" height="24"/>
		</defs>
		<clipPath id="SVGID_2_">
			<use xlink:href="#SVGID_1_"  style="overflow:visible;"/>
		</clipPath>
		<path class="st0" d="M14.77,6.38H9.23c-1.58,0-2.87,1.29-2.87,2.87v5.55c0,1.58,1.29,2.87,2.87,2.87h5.55
			c1.58,0,2.87-1.29,2.87-2.87V9.25C17.64,7.67,16.36,6.38,14.77,6.38 M12.06,15.45c-1.89,0-3.42-1.54-3.42-3.42
			c0-1.89,1.54-3.42,3.42-3.42s3.42,1.53,3.42,3.42C15.48,13.91,13.94,15.45,12.06,15.45 M15.68,9.19c-0.45,0-0.81-0.36-0.81-0.81
			c0-0.45,0.36-0.81,0.81-0.81c0.45,0,0.81,0.36,0.81,0.81C16.49,8.82,16.13,9.19,15.68,9.19"/>
		<path class="st0" d="M12.06,9.83c-1.21,0-2.19,0.98-2.19,2.19s0.98,2.19,2.19,2.19s2.19-0.98,2.19-2.19S13.27,9.83,12.06,9.83"/>
		<path class="st0" d="M17.93,0H6.08C2.72,0,0,2.72,0,6.07v11.85C0,21.28,2.72,24,6.08,24h11.85c3.36,0,6.08-2.72,6.08-6.08V6.07
			C24,2.72,21.28,0,17.93,0 M18.95,14.8c0,2.3-1.87,4.17-4.17,4.17H9.23c-2.3,0-4.17-1.87-4.17-4.17V9.25c0-2.3,1.87-4.17,4.17-4.17
			h5.55c2.3,0,4.17,1.87,4.17,4.17V14.8z"/>
	</g>
</g>
</svg>
