<?xml version="1.0" encoding="utf-8"?>
<!-- Generator: Adobe Illustrator 25.3.1, SVG Export Plug-In . SVG Version: 6.00 Build 0)  -->
<svg version="1.1" id="Capa_1" xmlns="http://www.w3.org/2000/svg" xmlns:xlink="http://www.w3.org/1999/xlink" x="0px" y="0px"
	 viewBox="0 0 48 48" style="enable-background:new 0 0 48 48;" xml:space="preserve">
<style type="text/css">
	.st0{fill:#FFCE00;}
	.st1{fill:#FFFFFF;}
	.st2{fill:#19A998;}
</style>
<circle class="st0" cx="35.97" cy="35.63" r="2.35"/>
<g>
	<path class="st0" d="M16.06,29.55c0,0,0.19-0.2,1.89-0.42c1.7-0.23,3.42,1.04,3.38,3.24c0,0-0.37-2.26-2.82-2.54
		c0,0-2.1,0.46-2.81-0.18L16.06,29.55z"/>
	<path class="st0" d="M33.79,29.84c0,0-0.18-0.21-1.87-0.52c-1.68-0.32-3.47,0.86-3.55,3.06c0,0,0.49-2.24,2.95-2.39
		c0,0,2.07,0.57,2.82-0.03L33.79,29.84z"/>
	<g>
		<g>
			<path d="M24.33,37.14c0,0-0.51-1.01-0.89-0.55C23.06,37.06,24.33,37.14,24.33,37.14z"/>
			<path d="M26.78,36.59c-0.38-0.46-0.89,0.55-0.89,0.55S27.16,37.06,26.78,36.59z"/>
			<path d="M27.7,39.79c-0.54-0.06-1.14-0.18-1.51-0.24c-0.39-0.06-1.07,0.21-1.21,0.27c-0.14-0.06-0.82-0.33-1.21-0.27
				c-0.44,0.07-1.21,0.23-1.82,0.27c-0.61,0.04-0.61,0.04-0.61,0.04c0.09,0.02,0.17,0.04,0.24,0.06c-0.13-0.01-0.21-0.02-0.21-0.02
				c0.09,0.1,0.21,0.17,0.31,0.25c0.11,0.09,0.22,0.18,0.33,0.27c0.21,0.19,0.42,0.38,0.64,0.57c0.42,0.37,0.86,0.7,1.4,0.88
				c0.3,0.1,0.62,0.15,0.94,0.14c0.32,0.01,0.64-0.04,0.94-0.14c0.54-0.17,0.98-0.51,1.4-0.88c0.21-0.19,0.42-0.38,0.64-0.57
				c0.11-0.09,0.22-0.18,0.33-0.27c0.1-0.08,0.22-0.15,0.31-0.25c0,0-0.08,0.01-0.21,0.02c0.08-0.02,0.15-0.04,0.24-0.06
				c0,0,0,0-0.13-0.01c0.08-0.04,0.13-0.07,0.13-0.07L27.7,39.79z"/>
			<path d="M35.92,16.14L35.92,16.14c0.17-0.76,0.65-1.46,1.39-1.38c0.31,0.03,0.58,0.2,0.84,0.36c1.58,0.99,3.16,1.99,4.74,2.98
				c1.35,0.85,3.25,1.66,4.38,0.53c-3.64-2.68-6.76-6.09-9.11-9.95c-0.76-1.25-1.45-2.56-2.51-3.57c-2.16-2.07-5.54-2.47-8.41-1.63
				c-2.87,0.84-5.31,2.75-7.45,4.84c-0.91,0.89-1.79,1.82-2.66,2.75l0.01-0.01C17.14,11.05,29.6,11.6,35.92,16.14z"/>
			<path d="M36.27,18.75C36.27,18.75,36.27,18.75,36.27,18.75c-0.02-0.01-11.4-4.35-22.83-4.1l0,0c0,0,0,0,0,0
				C7.02,15.2,3.03,18.34,1.3,19.46c0,0,0,0,0,0c0,0,0,0,0,0l0,0c0,0,0,0,0,0c3.41,1.62,6.72,2.88,9.97,3.87
				c-0.03,0.97,0.1,1.73,0.17,2.07c0.18,0.92-0.45,1.49-1.08,2.03c-0.6,0.52-1.05,1.3-1.18,2.1l0,0c0,0-0.68,2.35,0.97,2.92
				c0.21,0.07,0.4,0.03,0.59-0.09c-0.18,0.51-0.46,0.99-0.83,1.39c-0.67,0.72-1.33,1.37-0.91,2.43c0.72,1.79,3.25,1.05,3.63,0.92
				c-0.33,0.4-0.64,0.86-0.82,1.31c-0.25,0.61,0.04,1.33,0.38,1.89c0.2,0.36,0.44,0.67,0.71,0.93c0,0,0.01,0.01,0.01,0.01l0,0
				c0.89,0.84,2.12,1.12,3.43,0.74c0.11-0.03,0.78-0.42,1.4-0.82c0.15,0.19,0.3,0.39,0.46,0.58l0.03,0.04
				c1.42,1.65,2.75,3.22,4.92,3.77c0.67,0.17,1.3,0.26,1.91,0.26c1.57,0,2.98-0.57,4.33-1.75c1.59-1.38,2.96-3.14,4.03-5.08
				c0.36,0.85,0.94,1.47,1.36,1.94c1.83,2.05-0.29,3.41-0.78,3.76c2.33-1.27,2.5-2.31,0.65-4.75c-0.4-0.52-0.48-1.21-0.38-1.96
				c0.47,0.34,1.05,0.54,1.67,0.54c1.59,0,2.88-1.29,2.88-2.88c0-1.25-0.8-2.32-1.92-2.71c0.25-0.31,0.4-0.76,0.56-1.24
				c0.1-0.3,0.21-0.64,0.36-1.01c0.42-1.05,0.42-1.92,0.02-2.61c-0.28-0.47-0.7-0.75-1.07-0.92c0.01-0.08,0.02-0.17,0.03-0.25
				c3.27,0.07,6.58,0.07,9.95,0.08l0.01-0.05c0.08,0.01,0.17,0.03,0.25,0.04C41.34,21.8,38.67,19.85,36.27,18.75z M19.52,25.32
				c-0.2,0.12-0.4,0.26-0.58,0.42c-0.12,0.09-0.22,0.22-0.33,0.33c-0.1,0.12-0.19,0.26-0.28,0.39l-0.11,0.22l-0.05,0.11l-0.03,0.12
				c-0.02,0.08-0.04,0.16-0.06,0.24l0,0.06c-0.14-0.03-0.27-0.07-0.4-0.1c-0.03-0.37-0.09-0.75-0.2-1.15
				c-0.11-0.39-0.14-0.74-0.12-1.06C18.08,25.05,18.8,25.19,19.52,25.32z M15.61,32.53c0.3-0.42,0.66-0.89,0.99-1.43
				c0.31,0.3,0.63,0.56,0.9,0.68c0.06,0.04,0.12,0.08,0.18,0.11c-0.53-0.46-0.78-1.1-0.78-1.1c0.62-0.33,1.16-0.49,1.63-0.55
				c0.01,0,0.02,0,0.03,0c-0.35,0.21-0.58,0.6-0.56,1.03c0.01,0.32,0.16,0.6,0.38,0.8c0.14,0.13,0.31,0.21,0.5,0.26
				c0.1,0.02,0.21,0.04,0.31,0.03c0.04,0,0.08-0.01,0.12-0.02c0.14-0.02,0.27-0.07,0.39-0.13c0.36-0.21,0.6-0.6,0.58-1.04
				c-0.01-0.16-0.05-0.31-0.12-0.45c0.17,0.12,0.33,0.28,0.49,0.48c0.24,0.3,0.47,0.68,0.67,1.2c0,0-0.32-3.59-4.13-2.48
				c0.25-0.6,0.43-1.27,0.47-2.01c0.17,0.04,0.35,0.09,0.53,0.13c0.04,0.1,0.1,0.19,0.16,0.27c0.18,0.26,0.42,0.43,0.66,0.58
				c0.49,0.29,1.02,0.42,1.55,0.52c-0.5-0.2-0.98-0.44-1.36-0.78c-0.15-0.14-0.28-0.3-0.38-0.46c0.26,0.05,0.53,0.1,0.82,0.14
				c0.06,0.01,0.13,0.02,0.19,0.03c1.08,0.19,2.97,0.74,3.45,2.21c0.08,0.24,0.12,0.51,0.11,0.78v0c-0.02,1.39-1.05,2.82-2.02,3.46
				c-1.51,1-3.55,0.97-4.86-0.06c-0.59-0.46-1-1.06-1.3-1.69C15.36,32.88,15.49,32.71,15.61,32.53z M33.17,38.3
				c-1.08,2.05-2.49,3.92-4.15,5.36c-1.73,1.51-3.57,1.95-5.76,1.38c-2-0.52-3.29-2.02-4.65-3.61l-0.03-0.04
				c-0.65-0.76-1.16-1.56-1.56-2.37c-0.65-1.3-1.02-2.65-1.31-3.97c0.11,0.11,0.22,0.21,0.35,0.31c0.8,0.63,1.84,0.95,2.89,0.95
				c1,0,2.01-0.28,2.88-0.86c1.1-0.73,2.23-2.26,2.36-3.84c0.29-0.1,0.88-0.22,1.56,0c0.13,1.58,1.26,3.11,2.36,3.84
				c0.86,0.57,1.88,0.86,2.88,0.86c0.81,0,1.6-0.19,2.3-0.56C32.99,36.76,33,37.6,33.17,38.3z M33.82,34.36
				c-0.13,0.14-0.28,0.27-0.43,0.39c-1.31,1.03-3.35,1.05-4.86,0.06c-0.97-0.64-2.01-2.07-2.02-3.46v0c0-0.27,0.03-0.54,0.11-0.78
				c0.47-1.47,2.36-2.01,3.45-2.21c0.06-0.01,0.13-0.02,0.19-0.03c0.01,0,0.01,0,0.02,0c0.47,0.43,0.97,0.6,1.33,0.75
				c0.86,0.2,1.47,0.54,1.89,0.98c-0.37,0.02-0.71-0.02-0.71-0.02l0,0c-4.11-1.41-4.44,2.38-4.44,2.38c0.2-0.52,0.43-0.9,0.67-1.2
				c0.16-0.2,0.33-0.35,0.49-0.48c-0.07,0.14-0.11,0.29-0.12,0.45c-0.02,0.44,0.22,0.84,0.58,1.04c0.12,0.07,0.25,0.11,0.39,0.13
				c0.04,0.01,0.08,0.02,0.12,0.02c0.11,0.01,0.21-0.01,0.31-0.03c0.19-0.04,0.36-0.13,0.5-0.26c0.22-0.2,0.37-0.48,0.38-0.8
				c0.02-0.44-0.21-0.82-0.56-1.03c0.01,0,0.02,0,0.03,0c0.47,0.05,1,0.22,1.63,0.55c0,0-0.25,0.64-0.78,1.1
				c0.06-0.03,0.12-0.07,0.18-0.11c0.49-0.22,1.15-0.91,1.59-1.42C34.68,31.65,34.32,33.43,33.82,34.36z M38.27,35.61
				c0,1.3-1.06,2.37-2.37,2.37c-0.6,0-1.15-0.23-1.57-0.6c0.22-0.98,0.66-2.02,1.05-2.93c0.14-0.39,0.26-0.78,0.38-1.16
				c0.09,0.01,0.18,0.02,0.26,0.02c0.1,0,0.19-0.01,0.28-0.03C37.42,33.46,38.27,34.44,38.27,35.61z M37.15,28.44
				c0.27,0.47,0.25,1.11-0.07,1.92c-0.16,0.39-0.27,0.74-0.38,1.05c-0.31,0.92-0.41,1.15-0.73,1.13c0.33-1.34,0.5-2.63,0.51-3.86
				c0.05-0.23,0.1-0.48,0.15-0.75C36.82,28.05,37.01,28.21,37.15,28.44z M29.7,27.63c-1.28,0.26-3.26,0.94-3.82,2.69
				c-0.05,0.16-0.09,0.32-0.11,0.49c-0.65-0.17-1.22-0.1-1.61,0c-0.03-0.17-0.06-0.33-0.11-0.49c-0.6-1.85-2.79-2.51-4.05-2.73
				c-0.07-0.01-0.14-0.02-0.21-0.03c-0.38-0.06-0.73-0.12-1.05-0.19l0.01-0.05c0.02-0.05,0.05-0.09,0.07-0.14l0.03-0.07l0.05-0.06
				l0.09-0.12c0.08-0.07,0.15-0.15,0.24-0.22c0.1-0.06,0.17-0.14,0.28-0.18c0.2-0.11,0.41-0.2,0.63-0.27l0.35-0.1
				c0.14-0.04,0.28-0.07,0.42-0.13c0.14-0.05,0.29-0.1,0.44-0.17c0.08-0.04,0.15-0.07,0.23-0.11l0.09-0.06
				c2.52,0.39,5.03,0.65,7.54,0.84C29.35,26.97,29.52,27.34,29.7,27.63z"/>
		</g>
		<g>
			<circle class="st1" cx="30.82" cy="30.74" r="0.27"/>
			<circle class="st1" cx="19.01" cy="30.74" r="0.27"/>
		</g>
	</g>
</g>
<path class="st2" d="M15.7,14.64c0,0,9.29,0.01,19.52,3.73l0.7-2.24c0,0-5.66-4.96-18.79-5.07L15.7,14.64z"/>
</svg>
