<?xml version="1.0" encoding="utf-8"?>
<!-- Generator: Adobe Illustrator 25.3.1, SVG Export Plug-In . SVG Version: 6.00 Build 0)  -->
<svg version="1.1" id="Capa_1" xmlns="http://www.w3.org/2000/svg" xmlns:xlink="http://www.w3.org/1999/xlink" x="0px" y="0px"
	 viewBox="0 0 336.3 276.5" style="enable-background:new 0 0 336.3 276.5;" xml:space="preserve">
<style type="text/css">
	.st0{fill:#FFFFFF;}
	.st1{fill:#FFCE00;}
	.st2{font-family:'Eurofurenceregular';}
	.st3{font-size:21.5803px;}
	.st4{fill:#19A998;}
</style>
<g>
	<path class="st0" d="M127.8,125.9c0,0,14.3-15.5,9.3-35.5c0,0,48,7.2,53.6,6.6c0,0,8.7,11.8,14.9,11.2c6.2-0.6,10.7,12.4,6.2,23.4
		s-4.8,16.8-4.8,16.8s-19.2,33-36.7,28.7C170.3,177,143.6,183.2,127.8,125.9z"/>
	<g>
		<circle class="st1" cx="216.8" cy="136.8" r="9.8"/>
		<text transform="matrix(1 0 0 1 98.792 267.6426)" class="st1 st2 st3">diseñadora gráfica</text>
		<g>
			<path class="st0" d="M93.4,201.8c-0.7,1.2-1.3,2.9-1.7,5.1c-0.4,2.3-0.8,4.7-1,7.4s-0.4,5.4-0.4,8.3c0,2.9,0,5.5,0,7.9
				c0.1,2.4,0.2,4.5,0.3,6.2c0.2,1.7,0.4,2.7,0.6,3.1c0.7,1.3,0.7,2.3,0,3c-0.7,0.8-1.6,1.3-2.8,1.5c-1.2,0.3-2.5,0.3-3.9,0.1
				s-2.4-0.7-3.2-1.3c-0.6-0.6-1.2-1.8-1.6-3.5c-0.5-1.8-0.8-3.9-1.1-6.4c-0.3-2.5-0.5-5.3-0.7-8.4c-0.1-3.1-0.2-6.2-0.3-9.4
				c0-3.2,0-6.4,0-9.6c0.1-3.2,0.2-6.1,0.3-8.8c0.1-2.7,0.3-5.1,0.5-7.1s0.4-3.5,0.6-4.5c0.3-1.1,0.9-1.8,1.8-2.4
				c0.9-0.5,2-0.8,3.1-0.9c1.1,0,2.2,0.1,3.2,0.5s1.8,1,2.2,1.9c0.3,0.5,0.4,1.4,0.3,2.5c0,1.1-0.1,2.3-0.3,3.5
				c-0.1,1.2-0.3,2.5-0.4,3.6c-0.1,1.2-0.2,2.1-0.1,2.8c0.2-0.8,0.7-1.8,1.3-3c0.7-1.1,1.5-2.1,2.6-2.9c1-0.8,2.2-1.2,3.6-1.4
				c1.3-0.1,2.8,0.3,4.3,1.5c0.8,0.6,1.5,1.5,1.8,2.6c0.4,1.1,0.6,2.4,0.7,3.8c0.1,1.4,0.1,2.9,0,4.4c-0.1,1.6-0.2,3.1-0.3,4.5
				c-0.1,1.5-0.2,2.8-0.2,4.1s0.1,2.3,0.3,3.2c0.1-0.8,0.4-2.1,0.9-3.8s1.1-3.7,1.8-5.8c0.7-2.2,1.5-4.4,2.4-6.8
				c0.9-2.3,1.8-4.5,2.8-6.5s2-3.7,3-5.2c1-1.4,2-2.3,3-2.7c0.7-0.3,1.5-0.4,2.2-0.5c0.8-0.1,1.5,0,2.2,0.2s1.3,0.5,1.9,0.9
				s1.1,1,1.5,1.8c0.3,0.7,0.6,1.9,0.8,3.5c0.2,1.7,0.3,3.7,0.3,6.1c0,2.4,0,5,0,7.9s-0.1,5.8-0.1,8.9c0,3-0.1,6-0.2,9.1
				c-0.1,3-0.1,5.8-0.1,8.5c0,2.6,0.1,5,0.2,7c0.1,2.1,0.3,3.7,0.5,4.9c0.2,1.1,0,1.9-0.7,2.5s-1.5,1-2.4,1.1s-1.9,0.1-2.9-0.3
				c-1-0.3-1.7-0.9-2.1-1.7c-0.2-0.3-0.4-1.2-0.6-2.7s-0.5-3.3-0.7-5.6c-0.2-2.2-0.4-4.8-0.6-7.6s-0.4-5.8-0.5-8.9
				c-0.1-3.1-0.2-6.2-0.2-9.3c0-3.2,0.1-6.2,0.2-9c-0.4,1.9-1,3.9-1.6,6.2c-0.7,2.3-1.4,4.4-2.2,6.5c-0.8,2.1-1.6,3.9-2.3,5.5
				c-0.8,1.6-1.5,2.7-2.1,3.3c-1.1,1.1-2.5,1.7-4.1,2c-1.6,0.2-3.1,0-4.6-0.5s-2.7-1.4-3.5-2.5s-1.4-2.4-1.8-3.8
				c-0.4-1.4-0.5-2.9-0.6-4.4c0-1.6,0-3,0.1-4.4s0.2-2.6,0.3-3.6C93.5,202.9,93.5,202.2,93.4,201.8z"/>
			<path class="st0" d="M147.1,206.7c0.4-0.8,1-1.5,2-2.1c0.9-0.6,2.1-0.8,3.5-0.6c1.3,0.2,2.2,0.7,2.7,1.7c0.6,1,0.8,2.2,0.7,3.6
				c0,1.3,0,3.1,0,5.1c0,2.1,0,4.2,0,6.6c0,2.3,0,4.6-0.1,7c0,2.3-0.1,4.4-0.3,6.3c-0.1,0.8-0.5,1.5-1.2,2s-1.5,0.8-2.5,0.9
				c-0.9,0.1-1.9,0.1-2.9-0.1c-1-0.2-1.7-0.5-2.2-1c-0.6-0.6-0.9-1.4-1-2.4s-0.2-2.1-0.3-3.2c-0.8,1.1-1.7,2.1-2.6,3.1
				c-0.9,0.9-1.7,1.5-2.2,1.8c-0.8,0.4-1.7,0.6-2.6,0.6c-0.9,0-1.9-0.1-2.7-0.4c-0.9-0.3-1.7-0.7-2.4-1.3s-1.2-1.3-1.6-2.2
				c-0.5-1.2-0.7-2.6-0.8-4.2c-0.1-1.6,0-3,0.2-4.5c0.3-2.1,0.8-4.2,1.6-6.3s1.9-4.1,3.2-5.7c1.3-1.7,2.9-3,4.8-3.9
				C142.4,206.6,144.6,206.3,147.1,206.7z M138.1,230.2c0.3-0.1,0.7-0.5,1.3-1.4c0.6-0.8,1.2-1.9,1.8-3.1c0.6-1.2,1.3-2.5,2-3.9
				s1.3-2.7,1.8-4s0.9-2.4,1.2-3.3c0.3-0.9,0.4-1.5,0.4-1.7c-0.7-0.4-1.4-0.3-2.1,0.3c-0.7,0.5-1.4,1.4-2.1,2.5
				c-0.7,1.1-1.3,2.4-1.8,3.8c-0.5,1.5-1,2.9-1.4,4.3c-0.4,1.4-0.7,2.7-0.9,3.9C138.1,228.7,138,229.6,138.1,230.2z"/>
			<path class="st0" d="M160.2,205.9c0.5-0.8,1.3-1.3,2.3-1.5c1.1-0.2,2.1-0.3,3.1-0.1s1.9,0.5,2.7,1s1.1,1.1,1.1,1.7
				c0,0.4,0,0.8,0.1,1.2s0.2,0.8,0.3,1.1c0.1,0.4,0.3,0.7,0.6,0.9c0.2,0.2,0.5,0.4,0.7,0.4c0.5,0.1,1,0.3,1.4,0.6s0.8,0.8,1.1,1.3
				c0.4,0.5,0.7,1,1.1,1.6c0.4,0.6,0.7,1.1,1.2,1.7c0.5,0.8,1,1.2,1.4,1.4s0.7,0.2,1,0s0.6-0.5,0.8-0.9c0.3-0.4,0.5-0.8,0.8-1.2
				s0.5-0.7,0.8-1s0.5-0.4,0.9-0.3c0.4,0.1,0.8,0.3,1.2,0.7s0.6,0.7,0.5,1.1c-0.4,1.6-1.1,3.2-2,4.8c-1,1.6-2.3,2.8-4.1,3.5
				c-1.7,0.7-3.2,0.6-4.5-0.1c-1.3-0.7-2.7-1.9-4.1-3.4c-0.1,1.1-0.2,2.3-0.2,3.3c0,1.1,0,2.1,0.1,3.1c0.1,0.9,0.2,1.8,0.3,2.6
				s0.3,1.4,0.4,1.9c0.1,0.6,0.3,1.2,0.4,1.7c0.1,0.5,0.1,1-0.2,1.5c-0.2,0.4-0.8,0.8-1.6,1.1s-2.2,0.5-4,0.6
				c-1.2,0-2.3-0.4-3.1-1.5c-0.8-0.9-1.3-2.1-1.7-3.7c-0.4-1.6-0.7-3.3-0.9-5.2s-0.2-3.9-0.2-6s0.2-4,0.4-5.8s0.5-3.4,0.8-4.9
				C159.5,207.6,159.8,206.6,160.2,205.9z"/>
			<path class="st0" d="M195.1,222.6c0.5-0.8,0.9-1.3,1.5-1.4c0.5-0.1,1,0,1.5,0.3c0.8,0.4,1.2,1,1.2,1.8s-0.2,1.5-0.4,2.1
				c-0.5,1.4-0.9,2.6-1.3,3.8c-0.3,1.1-0.7,2.1-1.1,3c-0.4,0.9-0.9,1.6-1.6,2.2c-0.6,0.6-1.5,1-2.5,1.3c-0.4,0.1-0.9,0.1-1.5,0.2
				c-0.6,0-1.2,0.1-1.8,0.1s-1.2,0-1.8-0.1c-0.6,0-1.1-0.1-1.5-0.3c-2.3-0.5-3.9-1.6-4.9-3.1s-1.5-3.6-1.5-6.4c0-1.1,0-2.7,0.1-4.6
				c0.1-1.9,0.2-3.8,0.4-5.8s0.4-3.8,0.6-5.5c0.3-1.7,0.5-2.9,0.9-3.5c0.5-0.8,1.2-1.5,2.1-1.9c0.9-0.4,1.9-0.6,2.8-0.5
				c0.9,0.1,1.7,0.4,2.3,1c0.7,0.6,0.9,1.5,0.9,2.7c-0.2,2.8-0.2,5.4-0.2,8c0,2.5,0.1,4.8,0.2,6.8c0.1,2,0.3,3.6,0.4,4.9
				c0.2,1.3,0.3,2,0.4,2.3c0.1,0.2,0.3,0.2,0.5,0c0.3-0.2,0.5-0.6,0.9-1c0.3-0.5,0.7-1.1,1.1-1.7c0.4-0.7,0.7-1.3,1.1-1.9
				c0.3-0.6,0.6-1.2,0.9-1.7C194.9,223.1,195.1,222.8,195.1,222.6z M188.9,198.7c-0.3,0.9-0.7,1.6-1.4,2.1s-1.4,0.8-2.2,0.8
				s-1.5-0.3-2.1-0.9c-0.6-0.6-0.9-1.5-0.9-2.8c0-0.9,0.2-1.7,0.5-2.4s0.7-1.3,1.2-1.7s1.1-0.8,1.6-1c0.6-0.2,1.1-0.2,1.6-0.1
				c0.8,0.2,1.4,0.8,1.8,1.7C189.4,195.4,189.4,196.8,188.9,198.7z"/>
			<path class="st0" d="M204.7,235.5c-3.7,0-6.4-1-8.2-2.9s-2.7-4.7-2.7-8.3c0-1.7,0.3-3.8,0.8-6.1c0.5-2.4,1.3-4.6,2.4-6.7
				c1.1-2.1,2.4-3.9,3.9-5.4c1.6-1.5,3.4-2.2,5.4-2.2c1.6,0,2.9,0.5,3.9,1.6s1.8,2.4,2.3,4s0.7,3.3,0.7,5c0,1.8-0.3,3.3-0.8,4.6
				c-0.5,1.1-1.1,2-1.8,2.6c-0.8,0.6-1.7,0.9-2.7,0.7c-0.2,0-0.5-0.1-0.8-0.3c-0.3-0.1-0.6-0.4-0.9-0.7c-0.2-0.3-0.3-0.8-0.3-1.4
				c0-0.6,0.3-1.3,0.7-2.1c0.4-0.7,0.7-1.5,0.9-2.6s0.3-2.1,0.3-3.1s0-1.9-0.1-2.6c-0.1-0.7-0.3-1.1-0.5-1.2c-0.3,0-0.7,0.4-1.1,1.4
				c-0.4,1-0.8,2.2-1.2,3.7s-0.7,3.1-1,4.9c-0.3,1.8-0.5,3.5-0.5,5.1s0.1,3,0.4,4.1c0.3,1.2,0.8,1.9,1.6,2.1
				c0.8,0.3,1.5,0.3,2.4,0.1c0.8-0.2,1.6-0.5,2.4-1.1c0.8-0.5,1.5-1.3,2.2-2.2s1.2-2,1.7-3.2c0.3-0.9,0.7-1.4,1.2-1.5s0.9,0,1.3,0.1
				c0.4,0.2,0.7,0.5,0.9,0.9s0.1,1.1-0.1,2.2c-0.7,3-2.1,5.5-4.2,7.5C210.9,234.5,208.1,235.5,204.7,235.5z"/>
			<path class="st0" d="M226.3,230.2c0.8,0,1.6-0.3,2.5-0.9c0.9-0.6,1.8-1.3,2.7-2.1s1.7-1.7,2.5-2.6c0.8-0.9,1.4-1.6,1.9-2.1
				c0.6-0.7,1.2-1,1.8-1c0.6,0.1,1.1,0.3,1.5,0.7s0.7,1,0.8,1.6c0.1,0.7-0.1,1.3-0.7,2c-0.8,1.1-1.7,2.2-2.8,3.3s-2.3,2.2-3.6,3.1
				c-1.3,0.9-2.7,1.7-4.1,2.3c-1.4,0.6-2.9,0.9-4.3,0.9c-1.6,0-3.2-0.3-4.6-0.8c-1.4-0.5-2.6-1.2-3.7-2.1c-1.1-0.9-1.9-2.1-2.5-3.4
				c-0.6-1.3-0.9-2.9-0.9-4.5c0-2,0.4-4.2,1.2-6.6c0.8-2.4,1.9-4.6,3.3-6.8c1.4-2.1,3.1-3.9,5-5.3c1.9-1.4,3.9-2.1,6.1-2.1
				c2.1,0,3.6,0.5,4.6,1.5s1.5,2.5,1.5,4.6c0,1.1-0.3,2.1-0.8,3s-1.2,1.7-2,2.4s-1.7,1.2-2.8,1.6c-1,0.4-2.1,0.6-3.1,0.6
				c-0.4,0-0.8,0-1.1-0.1s-0.7-0.1-1.1-0.3c-0.1,0.3-0.2,0.8-0.3,1.5c0,0.7-0.1,1.6,0,2.5c0,0.9,0.1,1.9,0.3,3
				c0.1,1.1,0.3,2,0.6,2.9c0.2,0.9,0.5,1.6,0.9,2.1C225.3,229.9,225.7,230.2,226.3,230.2z M224.9,212.6c0.7,0.2,1.2,0.2,1.7,0.1
				c0.4-0.1,0.8-0.3,1-0.6c0.3-0.3,0.4-0.6,0.5-1s0.2-0.8,0.2-1.3c0-0.6-0.1-1.3-0.3-2.1c-0.2,0.3-0.5,0.6-0.8,1s-0.6,0.9-0.9,1.4
				c-0.3,0.5-0.6,0.9-0.8,1.4C225.2,211.8,225,212.2,224.9,212.6z"/>
			<path class="st0" d="M248.5,183.9c-0.3,2.7-0.5,5.9-0.6,9.5s-0.2,7.4-0.2,11.4s0,8,0.1,12.1s0.1,8,0.3,11.8
				c0.1,3.7,0.2,7.1,0.3,10.2c0.1,3.1,0.1,5.6,0.1,7.5c0,0.8-0.2,1.5-0.7,2s-1.1,0.8-2,0.8c-2,0-3.8-0.7-5.3-2s-2.4-2.9-2.8-4.9
				c-0.2-1.1-0.4-2.7-0.6-4.8c-0.2-2.1-0.3-4.5-0.5-7.3c-0.1-2.7-0.2-5.7-0.3-8.9s-0.1-6.4-0.1-9.6s0-6.4,0.1-9.5s0.2-6,0.4-8.6
				s0.4-4.9,0.7-6.9s0.6-3.4,1-4.3c0.2-0.5,0.6-0.9,1.2-1.3c0.6-0.3,1.3-0.6,2.1-0.7c0.8-0.1,1.5-0.2,2.4-0.1
				c0.8,0.1,1.6,0.2,2.2,0.5c0.7,0.3,1.2,0.6,1.6,1.1C248.4,182.6,248.6,183.2,248.5,183.9z"/>
			<path class="st0" d="M262.2,183.9c-0.3,2.7-0.5,5.9-0.6,9.5s-0.2,7.4-0.2,11.4s0,8,0.1,12.1s0.1,8,0.3,11.8
				c0.1,3.7,0.2,7.1,0.3,10.2c0.1,3.1,0.1,5.6,0.1,7.5c0,0.8-0.2,1.5-0.7,2s-1.1,0.8-2,0.8c-2,0-3.8-0.7-5.3-2s-2.4-2.9-2.8-4.9
				c-0.2-1.1-0.4-2.7-0.6-4.8c-0.2-2.1-0.3-4.5-0.5-7.3c-0.1-2.7-0.2-5.7-0.3-8.9s-0.1-6.4-0.1-9.6s0-6.4,0.1-9.5s0.2-6,0.4-8.6
				s0.4-4.9,0.7-6.9s0.6-3.4,1-4.3c0.2-0.5,0.6-0.9,1.2-1.3c0.6-0.3,1.3-0.6,2.1-0.7c0.8-0.1,1.5-0.2,2.4-0.1
				c0.8,0.1,1.6,0.2,2.2,0.5c0.7,0.3,1.2,0.6,1.6,1.1C262.1,182.6,262.3,183.2,262.2,183.9z"/>
		</g>
		<g>
			<path class="st1" d="M133.9,111.4c0,0,0.8-0.8,7.9-1.8s14.2,4.3,14.1,13.5c0,0-1.6-9.4-11.8-10.6c0,0-8.7,1.9-11.7-0.8
				L133.9,111.4z"/>
			<path class="st1" d="M207.8,112.6c0,0-0.8-0.9-7.8-2.2c-7-1.3-14.5,3.6-14.8,12.7c0,0,2.1-9.3,12.3-9.9c0,0,8.6,2.4,11.7-0.1
				L207.8,112.6z"/>
			<g>
				<g>
					<path d="M168.3,143.1c0,0-2.1-4.2-3.7-2.3C163.1,142.7,168.3,143.1,168.3,143.1z"/>
					<path d="M178.5,140.8c-1.6-1.9-3.7,2.3-3.7,2.3S180.1,142.7,178.5,140.8z"/>
					<path d="M182.4,154.1c-2.3-0.3-4.7-0.7-6.3-1s-4.5,0.9-5.1,1.1c-0.6-0.2-3.4-1.4-5.1-1.1c-1.8,0.3-5,0.9-7.6,1.1
						c-2.5,0.2-2.5,0.2-2.5,0.2c0.4,0.1,0.7,0.1,1,0.2c-0.5,0-0.9-0.1-0.9-0.1c0.4,0.4,0.9,0.7,1.3,1c0.5,0.4,0.9,0.7,1.4,1.1
						c0.9,0.8,1.8,1.6,2.7,2.4c1.8,1.5,3.6,2.9,5.8,3.7c1.3,0.4,2.6,0.6,3.9,0.6c1.3,0.1,2.6-0.2,3.9-0.6c2.2-0.7,4.1-2.1,5.8-3.7
						c0.9-0.8,1.8-1.6,2.7-2.4c0.4-0.4,0.9-0.8,1.4-1.1c0.4-0.3,0.9-0.6,1.3-1c0,0-0.3,0-0.9,0.1c0.3-0.1,0.6-0.2,1-0.2
						c0,0,0,0-0.6,0c0.3-0.2,0.6-0.3,0.6-0.3H182.4z"/>
					<path d="M216.6,55.5L216.6,55.5c0.7-3.2,2.7-6.1,5.8-5.8c1.3,0.1,2.4,0.8,3.5,1.5c6.6,4.1,13.2,8.3,19.7,12.4
						c5.6,3.5,13.5,6.9,18.3,2.2c-15.2-11.2-28.2-25.4-38-41.5c-3.2-5.2-6.1-10.7-10.4-14.9c-9-8.6-23.1-10.3-35.1-6.8
						s-22.1,11.5-31.1,20.2c-3.8,3.7-7.4,7.6-11.1,11.4l0,0C138.4,34.4,190.3,36.6,216.6,55.5z"/>
					<path d="M218.1,66.4L218.1,66.4c-0.1,0-47.5-18.1-95.1-17.1l0,0l0,0c-26.8,2.3-43.4,15.4-50.6,20l0,0l0,0l0,0l0,0
						c14.2,6.7,28,12,41.6,16.1c-0.1,4.1,0.4,7.2,0.7,8.6c0.7,3.8-1.9,6.2-4.5,8.5c-2.5,2.1-4.4,5.4-4.9,8.8l0,0c0,0-2.8,9.8,4,12.2
						c0.9,0.3,1.7,0.1,2.4-0.4c-0.8,2.1-1.9,4.1-3.5,5.8c-2.8,3-5.5,5.7-3.8,10.1c3,7.5,13.5,4.4,15.1,3.8c-1.4,1.7-2.7,3.6-3.4,5.4
						c-1,2.6,0.2,5.5,1.6,7.9c0.8,1.5,1.8,2.8,3,3.9l0,0l0,0c3.7,3.5,8.8,4.7,14.3,3.1c0.5-0.1,3.3-1.7,5.8-3.4
						c0.6,0.8,1.2,1.6,1.9,2.4l0.1,0.1c5.9,6.9,11.5,13.4,20.5,15.7c2.8,0.7,5.4,1.1,8,1.1c6.5,0,12.4-2.4,18-7.3
						c6.6-5.8,12.3-13.1,16.8-21.2c1.5,3.5,3.9,6.1,5.7,8.1c7.6,8.6-1.2,14.2-3.2,15.7c9.7-5.3,10.4-9.6,2.7-19.8
						c-1.6-2.2-2-5-1.6-8.2c2,1.4,4.4,2.2,6.9,2.2c6.6,0,12-5.4,12-12c0-5.2-3.3-9.6-8-11.3c1-1.3,1.7-3.2,2.3-5.2
						c0.4-1.2,0.9-2.6,1.5-4.2c1.7-4.4,1.8-8,0.1-10.9c-1.2-2-2.9-3.1-4.5-3.8c0-0.3,0.1-0.7,0.1-1.1c13.6,0.3,27.4,0.3,41.5,0.3
						v-0.2c0.3,0.1,0.7,0.1,1,0.2C239.2,79.1,228.1,71,218.1,66.4z M148.3,93.8c-0.8,0.5-1.7,1.1-2.4,1.7c-0.5,0.4-0.9,0.9-1.4,1.4
						c-0.4,0.5-0.8,1.1-1.2,1.6l-0.4,0.9l-0.2,0.5l-0.1,0.5c-0.1,0.3-0.2,0.7-0.2,1v0.2c-0.6-0.1-1.1-0.3-1.7-0.4
						c-0.1-1.5-0.4-3.1-0.8-4.8c-0.4-1.6-0.6-3.1-0.5-4.4C142.3,92.7,145.3,93.3,148.3,93.8z M132,123.9c1.3-1.7,2.7-3.7,4.1-5.9
						c1.3,1.2,2.6,2.3,3.7,2.9c0.2,0.2,0.5,0.3,0.7,0.5c-2.2-1.9-3.2-4.6-3.2-4.6c2.6-1.4,4.8-2.1,6.8-2.3h0.1
						c-1.5,0.9-2.4,2.5-2.3,4.3c0.1,1.3,0.7,2.5,1.6,3.3c0.6,0.5,1.3,0.9,2.1,1.1c0.4,0.1,0.9,0.2,1.3,0.1c0.2,0,0.3,0,0.5-0.1
						c0.6-0.1,1.1-0.3,1.6-0.6c1.5-0.9,2.5-2.5,2.4-4.4c0-0.7-0.2-1.3-0.5-1.9c0.7,0.5,1.4,1.2,2.1,2c1,1.2,2,2.8,2.8,5
						c0,0-1.3-15-17.2-10.3c1-2.5,1.8-5.3,2-8.4c0.7,0.2,1.4,0.4,2.2,0.5c0.2,0.4,0.4,0.8,0.7,1.1c0.7,1.1,1.7,1.8,2.7,2.4
						c2,1.2,4.3,1.8,6.5,2.2c-2.1-0.8-4.1-1.8-5.7-3.3c-0.6-0.6-1.2-1.2-1.6-1.9c1.1,0.2,2.2,0.4,3.4,0.6c0.3,0,0.5,0.1,0.8,0.1
						c4.5,0.8,12.4,3.1,14.4,9.2c0.3,1,0.5,2.1,0.5,3.3l0,0c-0.1,5.8-4.4,11.8-8.4,14.4c-6.3,4.2-14.8,4.1-20.3-0.2
						c-2.4-1.9-4.2-4.4-5.4-7C130.9,125.3,131.5,124.6,132,123.9z M205.2,147.9c-4.5,8.6-10.4,16.3-17.3,22.3
						c-7.2,6.3-14.9,8.1-24,5.8c-8.4-2.2-13.7-8.4-19.4-15l-0.1-0.1c-2.7-3.2-4.8-6.5-6.5-9.9c-2.7-5.4-4.3-11.1-5.5-16.5
						c0.5,0.4,0.9,0.9,1.4,1.3c3.4,2.6,7.7,4,12,4c4.2,0,8.4-1.2,12-3.6c4.6-3,9.3-9.4,9.8-16c1.2-0.4,3.7-0.9,6.5,0
						c0.6,6.6,5.2,12.9,9.8,16c3.6,2.4,7.8,3.6,12,3.6c3.4,0,6.7-0.8,9.6-2.3C204.4,141.5,204.5,145,205.2,147.9z M207.9,131.5
						c-0.6,0.6-1.1,1.1-1.8,1.6c-5.5,4.3-14,4.4-20.3,0.2c-4-2.7-8.4-8.6-8.4-14.4l0,0c0-1.1,0.1-2.2,0.5-3.3
						c2-6.1,9.8-8.4,14.4-9.2c0.3,0,0.5-0.1,0.8-0.1c0,0,0,0,0.1,0c2,1.8,4,2.5,5.5,3.1c3.6,0.8,6.1,2.3,7.9,4.1
						c-1.5,0.1-3-0.1-3-0.1l0,0c-17.1-5.9-18.5,9.9-18.5,9.9c0.8-2.2,1.8-3.8,2.8-5c0.7-0.8,1.4-1.5,2.1-2c-0.3,0.6-0.5,1.2-0.5,1.9
						c-0.1,1.9,0.9,3.5,2.4,4.4c0.5,0.3,1,0.5,1.6,0.6c0.2,0,0.3,0.1,0.5,0.1c0.5,0,0.9,0,1.3-0.1c0.8-0.2,1.5-0.5,2.1-1.1
						c0.9-0.8,1.5-2,1.6-3.3c0.1-1.8-0.9-3.4-2.3-4.3h0.1c1.9,0.2,4.2,0.9,6.8,2.3c0,0-1,2.7-3.2,4.6c0.2-0.1,0.5-0.3,0.7-0.5
						c2-0.9,4.8-3.8,6.6-5.9C211.5,120.2,210,127.6,207.9,131.5z M226.4,136.7c0,5.4-4.4,9.9-9.9,9.9c-2.5,0-4.8-0.9-6.5-2.5
						c0.9-4.1,2.7-8.4,4.4-12.2c0.6-1.6,1.1-3.2,1.6-4.8c0.4,0.1,0.7,0.1,1.1,0.1c0.4,0,0.8,0,1.1-0.1
						C222.9,127.7,226.4,131.8,226.4,136.7z M221.7,106.8c1.1,1.9,1,4.6-0.3,8c-0.7,1.6-1.1,3.1-1.6,4.4c-1.3,3.8-1.7,4.8-3,4.7
						c1.4-5.6,2.1-11,2.1-16.1c0.2-1,0.4-2,0.6-3.1C220.4,105.2,221.2,105.9,221.7,106.8z M190.7,103.5c-5.3,1.1-13.6,3.9-15.9,11.2
						c-0.2,0.7-0.4,1.3-0.5,2.1c-2.7-0.7-5.1-0.4-6.7,0c-0.1-0.7-0.3-1.4-0.5-2c-2.5-7.7-11.6-10.5-16.9-11.4
						c-0.3-0.1-0.6-0.1-0.9-0.1c-1.6-0.3-3-0.5-4.4-0.8l0.1-0.2c0.1-0.2,0.2-0.4,0.3-0.6l0.1-0.3l0.2-0.3l0.4-0.5
						c0.3-0.3,0.6-0.6,1-0.9s0.7-0.6,1.2-0.8c0.8-0.5,1.7-0.8,2.6-1.1l1.5-0.4c0.6-0.2,1.2-0.3,1.8-0.5s1.2-0.4,1.8-0.7
						c0.3-0.2,0.6-0.3,0.9-0.5l0.4-0.2c10.5,1.6,21,2.7,31.4,3.5C189.2,100.7,189.9,102.2,190.7,103.5z"/>
				</g>
				<g>
					<circle class="st0" cx="195.4" cy="116.4" r="1.1"/>
					<circle class="st0" cx="146.1" cy="116.4" r="1.1"/>
				</g>
			</g>
		</g>
	</g>
</g>
<path class="st4" d="M123,49.3c0,0,11.58-11.34,15.2-15.1c0,0,47.88-0.06,78.4,21.3c0,0,7,11.96,1.5,10.9
	C215.84,65.96,176.8,49.26,123,49.3z"/>
</svg>
