<?xml version="1.0" encoding="utf-8"?>
<!-- Generator: Adobe Illustrator 25.3.1, SVG Export Plug-In . SVG Version: 6.00 Build 0)  -->
<svg version="1.1" id="Capa_1" xmlns="http://www.w3.org/2000/svg" xmlns:xlink="http://www.w3.org/1999/xlink" x="0px" y="0px"
	 viewBox="0 0 100 98.58" style="enable-background:new 0 0 100 98.58;" xml:space="preserve">
<style type="text/css">
	.st0{fill:#FFFFFF;}
	.st1{fill:#FFCE00;}
</style>
<g>
	<path class="st0" d="M29.41,67.27c0,0,7.19-7.77,4.66-17.87c0,0,24.13,3.6,26.98,3.31c0,0,4.35,5.92,7.49,5.63
		s5.37,6.22,3.13,11.75s-2.41,8.45-2.41,8.45S59.58,95.12,50.8,92.98C50.8,92.98,37.37,96.12,29.41,67.27z"/>
	<g>
		<circle class="st1" cx="74.18" cy="72.75" r="4.92"/>
		<g>
			<path class="st1" d="M32.47,60.02c0,0,0.4-0.41,3.96-0.89s7.16,2.18,7.09,6.79c0,0-0.78-4.74-5.92-5.32c0,0-4.4,0.96-5.89-0.39
				L32.47,60.02z"/>
			<path class="st1" d="M69.62,60.62c0,0-0.38-0.43-3.91-1.1c-3.53-0.66-7.27,1.79-7.44,6.41c0,0,1.03-4.69,6.19-5
				c0,0,4.34,1.19,5.91-0.07L69.62,60.62z"/>
			<g>
				<g>
					<path d="M49.79,75.93c0,0-1.06-2.12-1.86-1.15C47.14,75.75,49.79,75.93,49.79,75.93z"/>
					<path d="M54.92,74.78c-0.8-0.97-1.86,1.15-1.86,1.15S55.71,75.75,54.92,74.78z"/>
					<path d="M56.86,81.48c-1.14-0.13-2.38-0.38-3.15-0.49c-0.83-0.13-2.24,0.44-2.54,0.56c-0.3-0.12-1.71-0.69-2.54-0.56
						c-0.93,0.14-2.54,0.47-3.82,0.56c-1.28,0.08-1.28,0.08-1.28,0.08c0.18,0.03,0.35,0.08,0.51,0.12
						c-0.27-0.02-0.44-0.04-0.44-0.04c0.19,0.2,0.43,0.35,0.65,0.52c0.23,0.18,0.46,0.37,0.69,0.57c0.45,0.39,0.89,0.79,1.33,1.18
						c0.88,0.77,1.81,1.48,2.94,1.84c0.63,0.2,1.3,0.31,1.96,0.28c0.66,0.03,1.33-0.08,1.96-0.28c1.13-0.36,2.05-1.07,2.94-1.84
						c0.45-0.39,0.89-0.79,1.33-1.18c0.22-0.19,0.45-0.39,0.69-0.57c0.22-0.17,0.46-0.32,0.65-0.52c0,0-0.16,0.01-0.44,0.04
						c0.16-0.05,0.32-0.09,0.51-0.12c0,0-0.01,0-0.28-0.02c0.17-0.09,0.28-0.15,0.28-0.15L56.86,81.48z"/>
					<path d="M74.09,31.9L74.09,31.9c0.36-1.6,1.37-3.05,2.91-2.9c0.65,0.06,1.22,0.42,1.77,0.76c3.31,2.08,6.62,4.16,9.93,6.24
						c2.83,1.78,6.81,3.47,9.18,1.11c-7.64-5.62-14.16-12.75-19.09-20.86c-1.59-2.61-3.04-5.36-5.25-7.47
						C69,4.46,61.92,3.61,55.9,5.37c-6.02,1.76-11.13,5.76-15.62,10.14c-1.91,1.87-3.74,3.82-5.58,5.76l0.02-0.02
						C34.73,21.25,60.84,22.39,74.09,31.9z"/>
					<path d="M74.82,37.39C74.82,37.39,74.82,37.38,74.82,37.39c-0.03-0.01-23.9-9.12-47.84-8.59l0,0c0,0,0,0,0,0
						C13.52,29.95,5.14,36.52,1.53,38.87c0,0,0,0,0,0c0,0,0,0,0,0l0,0c0,0,0,0,0,0c7.14,3.39,14.08,6.04,20.9,8.12
						c-0.07,2.04,0.21,3.63,0.35,4.35c0.37,1.93-0.94,3.12-2.27,4.25c-1.27,1.08-2.19,2.73-2.48,4.4l-0.01,0
						c0,0-1.43,4.92,2.04,6.12c0.43,0.15,0.84,0.06,1.23-0.18c-0.38,1.08-0.96,2.08-1.74,2.91c-1.41,1.51-2.79,2.88-1.9,5.09
						c1.5,3.75,6.81,2.19,7.61,1.93c-0.69,0.85-1.35,1.81-1.72,2.74c-0.51,1.28,0.08,2.78,0.79,3.95c0.41,0.76,0.92,1.41,1.49,1.95
						c0.01,0.01,0.02,0.02,0.02,0.02l0,0c1.86,1.76,4.44,2.35,7.19,1.55c0.23-0.07,1.64-0.87,2.93-1.73
						c0.3,0.41,0.62,0.81,0.96,1.21l0.06,0.08c2.97,3.46,5.77,6.74,10.3,7.91c1.39,0.36,2.72,0.54,4,0.54c3.29,0,6.24-1.2,9.07-3.66
						c3.33-2.89,6.2-6.58,8.45-10.64c0.76,1.78,1.97,3.08,2.85,4.07c3.83,4.3-0.62,7.15-1.63,7.87c4.88-2.67,5.24-4.84,1.36-9.96
						c-0.83-1.09-1-2.53-0.8-4.11c0.99,0.71,2.19,1.13,3.49,1.13c3.33,0,6.04-2.71,6.04-6.04c0-2.62-1.68-4.85-4.02-5.69
						c0.51-0.65,0.83-1.59,1.17-2.59c0.21-0.62,0.45-1.33,0.76-2.11c0.87-2.19,0.89-4.03,0.04-5.47c-0.58-0.99-1.46-1.58-2.24-1.93
						c0.02-0.17,0.04-0.36,0.06-0.53c6.86,0.15,13.79,0.14,20.86,0.16l0.02-0.11c0.17,0.03,0.35,0.06,0.52,0.09
						C85.44,43.76,79.84,39.68,74.82,37.39z M39.7,51.16c-0.43,0.26-0.84,0.54-1.22,0.87c-0.26,0.19-0.47,0.47-0.69,0.7
						c-0.22,0.25-0.4,0.54-0.58,0.82l-0.22,0.47l-0.1,0.23l-0.07,0.25c-0.04,0.17-0.09,0.34-0.12,0.51l-0.01,0.12
						c-0.29-0.07-0.57-0.14-0.84-0.22c-0.06-0.77-0.2-1.58-0.42-2.42c-0.22-0.82-0.29-1.56-0.25-2.23
						C36.68,50.59,38.19,50.88,39.7,51.16z M31.53,66.26c0.64-0.87,1.38-1.86,2.07-2.99c0.64,0.62,1.32,1.18,1.88,1.43
						c0.13,0.09,0.25,0.17,0.37,0.24c-1.11-0.96-1.63-2.3-1.63-2.3c1.3-0.69,2.43-1.03,3.41-1.15c0.02,0,0.05,0,0.07,0
						c-0.73,0.44-1.21,1.25-1.17,2.16c0.03,0.67,0.34,1.26,0.8,1.68c0.3,0.26,0.66,0.45,1.05,0.54c0.21,0.05,0.43,0.08,0.66,0.07
						c0.09,0,0.17-0.03,0.26-0.04c0.29-0.05,0.56-0.14,0.81-0.28c0.76-0.43,1.26-1.26,1.21-2.19c-0.02-0.34-0.1-0.66-0.25-0.95
						c0.35,0.26,0.7,0.58,1.03,1c0.51,0.62,0.99,1.43,1.41,2.51c0,0-0.67-7.53-8.66-5.19c0.53-1.26,0.9-2.66,0.99-4.21
						c0.36,0.09,0.72,0.18,1.11,0.27c0.09,0.2,0.2,0.4,0.34,0.57c0.37,0.54,0.88,0.91,1.38,1.22c1.03,0.6,2.15,0.88,3.25,1.09
						c-1.04-0.42-2.05-0.93-2.84-1.64c-0.32-0.29-0.59-0.62-0.79-0.97c0.54,0.1,1.11,0.2,1.72,0.3c0.13,0.02,0.27,0.04,0.4,0.07
						c2.27,0.41,6.23,1.55,7.22,4.63c0.16,0.51,0.24,1.06,0.24,1.63v0c-0.03,2.91-2.21,5.92-4.24,7.26
						c-3.16,2.09-7.44,2.04-10.18-0.12c-1.23-0.97-2.1-2.22-2.72-3.54C30.99,67,31.26,66.63,31.53,66.26z M68.32,78.36
						c-2.25,4.3-5.22,8.21-8.7,11.23c-3.63,3.16-7.47,4.08-12.08,2.89c-4.2-1.08-6.9-4.23-9.75-7.56l-0.06-0.07
						c-1.37-1.6-2.42-3.27-3.27-4.97c-1.35-2.73-2.15-5.56-2.75-8.32c0.23,0.22,0.47,0.44,0.73,0.64c1.69,1.33,3.85,1.99,6.06,1.99
						c2.09,0,4.22-0.6,6.03-1.8c2.31-1.53,4.67-4.73,4.94-8.05c0.61-0.2,1.84-0.47,3.28,0.01c0.28,3.32,2.63,6.51,4.94,8.04
						c1.81,1.2,3.94,1.8,6.03,1.8c1.7,0,3.36-0.4,4.81-1.18C67.93,75.12,67.96,76.88,68.32,78.36z M69.68,70.09
						c-0.28,0.29-0.58,0.57-0.9,0.83c-2.74,2.16-7.03,2.21-10.18,0.12c-2.03-1.34-4.21-4.35-4.24-7.26v0
						c-0.01-0.58,0.07-1.13,0.24-1.63c0.99-3.07,4.95-4.22,7.22-4.63c0.13-0.02,0.27-0.05,0.4-0.07c0.01,0,0.02,0,0.04-0.01
						c0.99,0.89,2.03,1.26,2.79,1.58c1.79,0.41,3.08,1.14,3.96,2.04c-0.77,0.05-1.49-0.05-1.49-0.05l0,0.01
						C58.89,58.06,58.19,66,58.19,66c0.42-1.08,0.91-1.89,1.41-2.51c0.34-0.41,0.68-0.74,1.03-1c-0.14,0.29-0.23,0.61-0.25,0.95
						c-0.04,0.93,0.46,1.76,1.21,2.19c0.25,0.14,0.52,0.24,0.81,0.28c0.09,0.01,0.17,0.03,0.26,0.04c0.23,0.01,0.45-0.02,0.66-0.07
						c0.4-0.09,0.76-0.28,1.05-0.54c0.46-0.41,0.77-1.01,0.8-1.68c0.04-0.91-0.44-1.72-1.17-2.16c0.02,0,0.05,0,0.07,0
						c0.98,0.11,2.1,0.46,3.41,1.15c0,0-0.52,1.34-1.63,2.3c0.12-0.07,0.24-0.15,0.37-0.24c1.03-0.46,2.41-1.92,3.32-2.97
						C71.49,64.41,70.72,68.14,69.68,70.09z M79.02,72.71c0,2.73-2.22,4.96-4.96,4.96c-1.26,0-2.41-0.48-3.29-1.26
						c0.46-2.05,1.38-4.24,2.19-6.14c0.3-0.82,0.55-1.63,0.79-2.43c0.19,0.03,0.37,0.05,0.54,0.05c0.21,0,0.4-0.02,0.58-0.07
						C77.22,68.21,79.02,70.25,79.02,72.71z M76.65,57.69c0.57,0.98,0.52,2.33-0.15,4.03c-0.33,0.82-0.57,1.55-0.79,2.2
						c-0.64,1.92-0.87,2.42-1.53,2.36c0.7-2.81,1.04-5.51,1.06-8.09c0.11-0.48,0.21-1.01,0.31-1.57
						C75.96,56.87,76.37,57.21,76.65,57.69z M61.05,56c-2.68,0.55-6.84,1.98-8.02,5.64c-0.11,0.33-0.19,0.68-0.24,1.03
						c-1.36-0.35-2.55-0.21-3.37,0c-0.05-0.35-0.13-0.7-0.24-1.03c-1.25-3.89-5.85-5.26-8.48-5.73c-0.14-0.03-0.29-0.05-0.43-0.07
						c-0.8-0.13-1.53-0.26-2.2-0.39l0.03-0.11c0.04-0.1,0.1-0.19,0.14-0.29l0.07-0.14l0.1-0.13l0.2-0.26
						c0.17-0.16,0.32-0.32,0.5-0.46c0.2-0.13,0.36-0.28,0.59-0.38c0.41-0.23,0.86-0.42,1.32-0.56l0.74-0.21
						c0.3-0.09,0.59-0.15,0.89-0.26c0.3-0.11,0.6-0.2,0.92-0.36c0.16-0.08,0.31-0.14,0.48-0.24l0.18-0.12
						c5.29,0.81,10.54,1.37,15.8,1.75C60.31,54.61,60.66,55.38,61.05,56z"/>
				</g>
				<g>
					<circle class="st0" cx="63.39" cy="62.5" r="0.57"/>
					<circle class="st0" cx="38.63" cy="62.5" r="0.57"/>
				</g>
			</g>
		</g>
	</g>
</g>
</svg>
